<mxfile host="Electron" modified="2023-05-20T08:01:52.477Z" agent="Mozilla/5.0 (Macintosh; Intel Mac OS X 10_15_7) AppleWebKit/537.36 (KHTML, like Gecko) draw.io/21.2.1 Chrome/112.0.5615.87 Electron/24.1.2 Safari/537.36" etag="wKoocrlnp8Ev6C6EwDxf" version="21.2.1" type="device">
  <diagram name="ページ1" id="am5q-amjsPR5wDfRg7l5">
    <mxGraphModel dx="1194" dy="727" grid="1" gridSize="10" guides="1" tooltips="1" connect="1" arrows="1" fold="1" page="1" pageScale="1" pageWidth="827" pageHeight="1169" math="0" shadow="0">
      <root>
        <mxCell id="0" />
        <mxCell id="1" parent="0" />
        <mxCell id="gLD4gWAbkQPmNSI0nhXh-1" value="" style="rounded=1;whiteSpace=wrap;html=1;" vertex="1" parent="1">
          <mxGeometry x="110" y="920" width="630" height="200" as="geometry" />
        </mxCell>
        <mxCell id="gLD4gWAbkQPmNSI0nhXh-2" value="" style="rounded=1;whiteSpace=wrap;html=1;" vertex="1" parent="1">
          <mxGeometry x="110" y="630" width="440" height="200" as="geometry" />
        </mxCell>
        <mxCell id="gLD4gWAbkQPmNSI0nhXh-4" value="" style="rounded=1;whiteSpace=wrap;html=1;" vertex="1" parent="1">
          <mxGeometry x="570" y="310" width="360" height="200" as="geometry" />
        </mxCell>
        <mxCell id="gLD4gWAbkQPmNSI0nhXh-3" value="" style="rounded=1;whiteSpace=wrap;html=1;" vertex="1" parent="1">
          <mxGeometry x="110" y="310" width="360" height="200" as="geometry" />
        </mxCell>
        <mxCell id="gLD4gWAbkQPmNSI0nhXh-5" value="controller" style="text;html=1;strokeColor=none;fillColor=none;align=center;verticalAlign=middle;whiteSpace=wrap;rounded=0;" vertex="1" parent="1">
          <mxGeometry x="110" y="270" width="60" height="30" as="geometry" />
        </mxCell>
        <mxCell id="gLD4gWAbkQPmNSI0nhXh-7" value="Infra" style="text;html=1;strokeColor=none;fillColor=none;align=center;verticalAlign=middle;whiteSpace=wrap;rounded=0;" vertex="1" parent="1">
          <mxGeometry x="570" y="270" width="60" height="30" as="geometry" />
        </mxCell>
        <mxCell id="gLD4gWAbkQPmNSI0nhXh-8" value="app" style="text;html=1;strokeColor=none;fillColor=none;align=center;verticalAlign=middle;whiteSpace=wrap;rounded=0;" vertex="1" parent="1">
          <mxGeometry x="110" y="585" width="60" height="30" as="geometry" />
        </mxCell>
        <mxCell id="gLD4gWAbkQPmNSI0nhXh-9" value="domain" style="text;html=1;strokeColor=none;fillColor=none;align=center;verticalAlign=middle;whiteSpace=wrap;rounded=0;" vertex="1" parent="1">
          <mxGeometry x="120" y="880" width="60" height="30" as="geometry" />
        </mxCell>
        <mxCell id="gLD4gWAbkQPmNSI0nhXh-10" value="" style="html=1;shadow=0;dashed=0;align=center;verticalAlign=middle;shape=mxgraph.arrows2.arrow;dy=0.6;dx=40;notch=0;rotation=90;" vertex="1" parent="1">
          <mxGeometry x="220" y="230" width="100" height="40" as="geometry" />
        </mxCell>
        <mxCell id="gLD4gWAbkQPmNSI0nhXh-11" value="API Request" style="text;html=1;strokeColor=none;fillColor=none;align=center;verticalAlign=middle;whiteSpace=wrap;rounded=0;" vertex="1" parent="1">
          <mxGeometry x="150" y="230" width="100" height="30" as="geometry" />
        </mxCell>
        <mxCell id="gLD4gWAbkQPmNSI0nhXh-12" value="API controller" style="rounded=1;whiteSpace=wrap;html=1;" vertex="1" parent="1">
          <mxGeometry x="265" y="330" width="85" height="80" as="geometry" />
        </mxCell>
        <mxCell id="gLD4gWAbkQPmNSI0nhXh-15" value="Data QS" style="rounded=1;whiteSpace=wrap;html=1;" vertex="1" parent="1">
          <mxGeometry x="610" y="335" width="85" height="70" as="geometry" />
        </mxCell>
        <mxCell id="gLD4gWAbkQPmNSI0nhXh-16" value="" style="endArrow=classic;html=1;rounded=0;" edge="1" parent="1" source="gLD4gWAbkQPmNSI0nhXh-12" target="gLD4gWAbkQPmNSI0nhXh-15">
          <mxGeometry width="50" height="50" relative="1" as="geometry">
            <mxPoint x="170" y="560" as="sourcePoint" />
            <mxPoint x="220" y="510" as="targetPoint" />
          </mxGeometry>
        </mxCell>
        <mxCell id="gLD4gWAbkQPmNSI0nhXh-17" value="Data Interface" style="rounded=1;whiteSpace=wrap;html=1;" vertex="1" parent="1">
          <mxGeometry x="440" y="650" width="85" height="70" as="geometry" />
        </mxCell>
        <mxCell id="gLD4gWAbkQPmNSI0nhXh-19" value="" style="endArrow=block;dashed=1;endFill=0;endSize=12;html=1;rounded=0;exitX=0.5;exitY=1;exitDx=0;exitDy=0;entryX=0.5;entryY=0;entryDx=0;entryDy=0;" edge="1" parent="1" source="gLD4gWAbkQPmNSI0nhXh-15" target="gLD4gWAbkQPmNSI0nhXh-17">
          <mxGeometry width="160" relative="1" as="geometry">
            <mxPoint x="200" y="560" as="sourcePoint" />
            <mxPoint x="360" y="560" as="targetPoint" />
            <Array as="points">
              <mxPoint x="653" y="570" />
              <mxPoint x="483" y="570" />
            </Array>
          </mxGeometry>
        </mxCell>
        <mxCell id="gLD4gWAbkQPmNSI0nhXh-20" value="Data DTO" style="rounded=1;whiteSpace=wrap;html=1;" vertex="1" parent="1">
          <mxGeometry x="315" y="650" width="85" height="70" as="geometry" />
        </mxCell>
        <mxCell id="gLD4gWAbkQPmNSI0nhXh-21" value="" style="endArrow=none;html=1;rounded=0;exitX=1;exitY=0.5;exitDx=0;exitDy=0;" edge="1" parent="1" source="gLD4gWAbkQPmNSI0nhXh-20" target="gLD4gWAbkQPmNSI0nhXh-17">
          <mxGeometry width="50" height="50" relative="1" as="geometry">
            <mxPoint x="450" y="590" as="sourcePoint" />
            <mxPoint x="500" y="540" as="targetPoint" />
          </mxGeometry>
        </mxCell>
        <mxCell id="gLD4gWAbkQPmNSI0nhXh-22" value="UserCase" style="rounded=1;whiteSpace=wrap;html=1;" vertex="1" parent="1">
          <mxGeometry x="150" y="740" width="85" height="70" as="geometry" />
        </mxCell>
        <mxCell id="gLD4gWAbkQPmNSI0nhXh-23" value="" style="endArrow=block;dashed=1;endFill=0;endSize=12;html=1;rounded=0;exitX=1;exitY=0.5;exitDx=0;exitDy=0;entryX=0.5;entryY=1;entryDx=0;entryDy=0;" edge="1" parent="1" source="gLD4gWAbkQPmNSI0nhXh-22" target="gLD4gWAbkQPmNSI0nhXh-17">
          <mxGeometry width="160" relative="1" as="geometry">
            <mxPoint x="653" y="455" as="sourcePoint" />
            <mxPoint x="493" y="660" as="targetPoint" />
            <Array as="points">
              <mxPoint x="483" y="775" />
            </Array>
          </mxGeometry>
        </mxCell>
        <mxCell id="gLD4gWAbkQPmNSI0nhXh-25" value="" style="endArrow=classic;html=1;rounded=0;entryX=0.5;entryY=0;entryDx=0;entryDy=0;exitX=0.5;exitY=1;exitDx=0;exitDy=0;" edge="1" parent="1" source="gLD4gWAbkQPmNSI0nhXh-12" target="gLD4gWAbkQPmNSI0nhXh-22">
          <mxGeometry width="50" height="50" relative="1" as="geometry">
            <mxPoint x="290" y="510" as="sourcePoint" />
            <mxPoint x="335" y="580" as="targetPoint" />
            <Array as="points">
              <mxPoint x="308" y="600" />
              <mxPoint x="193" y="600" />
            </Array>
          </mxGeometry>
        </mxCell>
        <mxCell id="gLD4gWAbkQPmNSI0nhXh-26" value="Response" style="rounded=1;whiteSpace=wrap;html=1;" vertex="1" parent="1">
          <mxGeometry x="130" y="430" width="85" height="70" as="geometry" />
        </mxCell>
        <mxCell id="gLD4gWAbkQPmNSI0nhXh-27" value="" style="endArrow=classic;html=1;rounded=0;entryX=0.5;entryY=0;entryDx=0;entryDy=0;exitX=0.5;exitY=1;exitDx=0;exitDy=0;" edge="1" parent="1" source="gLD4gWAbkQPmNSI0nhXh-26" target="gLD4gWAbkQPmNSI0nhXh-20">
          <mxGeometry width="50" height="50" relative="1" as="geometry">
            <mxPoint x="300" y="520" as="sourcePoint" />
            <mxPoint x="203" y="750" as="targetPoint" />
            <Array as="points">
              <mxPoint x="173" y="570" />
              <mxPoint x="358" y="570" />
            </Array>
          </mxGeometry>
        </mxCell>
        <mxCell id="gLD4gWAbkQPmNSI0nhXh-28" value="" style="endArrow=classic;html=1;rounded=0;entryX=0.5;entryY=0;entryDx=0;entryDy=0;exitX=0;exitY=0.5;exitDx=0;exitDy=0;" edge="1" parent="1" source="gLD4gWAbkQPmNSI0nhXh-12" target="gLD4gWAbkQPmNSI0nhXh-26">
          <mxGeometry width="50" height="50" relative="1" as="geometry">
            <mxPoint x="233" y="510" as="sourcePoint" />
            <mxPoint x="368" y="660" as="targetPoint" />
            <Array as="points">
              <mxPoint x="173" y="370" />
            </Array>
          </mxGeometry>
        </mxCell>
        <mxCell id="gLD4gWAbkQPmNSI0nhXh-29" value="Entity" style="rounded=1;whiteSpace=wrap;html=1;" vertex="1" parent="1">
          <mxGeometry x="345" y="1030" width="160" height="70" as="geometry" />
        </mxCell>
        <mxCell id="gLD4gWAbkQPmNSI0nhXh-30" value="Value Object" style="rounded=1;whiteSpace=wrap;html=1;" vertex="1" parent="1">
          <mxGeometry x="345" y="940" width="160" height="70" as="geometry" />
        </mxCell>
        <mxCell id="gLD4gWAbkQPmNSI0nhXh-31" value="Repository" style="rounded=1;whiteSpace=wrap;html=1;" vertex="1" parent="1">
          <mxGeometry x="695" y="430" width="85" height="70" as="geometry" />
        </mxCell>
        <mxCell id="gLD4gWAbkQPmNSI0nhXh-32" value="DB Client" style="rounded=1;whiteSpace=wrap;html=1;" vertex="1" parent="1">
          <mxGeometry x="790" y="335" width="85" height="70" as="geometry" />
        </mxCell>
        <mxCell id="gLD4gWAbkQPmNSI0nhXh-33" value="DB" style="shape=cylinder3;whiteSpace=wrap;html=1;boundedLbl=1;backgroundOutline=1;size=15;" vertex="1" parent="1">
          <mxGeometry x="802.5" y="110" width="60" height="80" as="geometry" />
        </mxCell>
        <mxCell id="gLD4gWAbkQPmNSI0nhXh-34" value="" style="endArrow=classic;html=1;rounded=0;exitX=0.5;exitY=0;exitDx=0;exitDy=0;entryX=0.5;entryY=1;entryDx=0;entryDy=0;entryPerimeter=0;" edge="1" parent="1" source="gLD4gWAbkQPmNSI0nhXh-32" target="gLD4gWAbkQPmNSI0nhXh-33">
          <mxGeometry width="50" height="50" relative="1" as="geometry">
            <mxPoint x="360" y="380" as="sourcePoint" />
            <mxPoint x="620" y="380" as="targetPoint" />
          </mxGeometry>
        </mxCell>
        <mxCell id="gLD4gWAbkQPmNSI0nhXh-35" value="" style="endArrow=classic;html=1;rounded=0;exitX=1;exitY=0.5;exitDx=0;exitDy=0;" edge="1" parent="1" source="gLD4gWAbkQPmNSI0nhXh-15" target="gLD4gWAbkQPmNSI0nhXh-32">
          <mxGeometry width="50" height="50" relative="1" as="geometry">
            <mxPoint x="793" y="345" as="sourcePoint" />
            <mxPoint x="805" y="210" as="targetPoint" />
          </mxGeometry>
        </mxCell>
        <mxCell id="gLD4gWAbkQPmNSI0nhXh-36" value="" style="endArrow=classic;html=1;rounded=0;entryX=0.5;entryY=0;entryDx=0;entryDy=0;exitX=0.5;exitY=1;exitDx=0;exitDy=0;" edge="1" parent="1" source="gLD4gWAbkQPmNSI0nhXh-15" target="gLD4gWAbkQPmNSI0nhXh-31">
          <mxGeometry width="50" height="50" relative="1" as="geometry">
            <mxPoint x="650" y="410" as="sourcePoint" />
            <mxPoint x="750" y="380" as="targetPoint" />
          </mxGeometry>
        </mxCell>
        <mxCell id="gLD4gWAbkQPmNSI0nhXh-37" value="Repository Interface" style="rounded=1;whiteSpace=wrap;html=1;" vertex="1" parent="1">
          <mxGeometry x="630" y="940" width="85" height="70" as="geometry" />
        </mxCell>
        <mxCell id="gLD4gWAbkQPmNSI0nhXh-38" value="" style="endArrow=block;dashed=1;endFill=0;endSize=12;html=1;rounded=0;entryX=0.5;entryY=0;entryDx=0;entryDy=0;" edge="1" parent="1" source="gLD4gWAbkQPmNSI0nhXh-31" target="gLD4gWAbkQPmNSI0nhXh-37">
          <mxGeometry width="160" relative="1" as="geometry">
            <mxPoint x="835" y="562.5" as="sourcePoint" />
            <mxPoint x="665" y="807.5" as="targetPoint" />
            <Array as="points">
              <mxPoint x="738" y="650" />
              <mxPoint x="673" y="650" />
            </Array>
          </mxGeometry>
        </mxCell>
        <mxCell id="gLD4gWAbkQPmNSI0nhXh-39" value="" style="endArrow=classic;html=1;rounded=0;entryX=0.5;entryY=1;entryDx=0;entryDy=0;exitX=1;exitY=0.5;exitDx=0;exitDy=0;" edge="1" parent="1" source="gLD4gWAbkQPmNSI0nhXh-31" target="gLD4gWAbkQPmNSI0nhXh-32">
          <mxGeometry width="50" height="50" relative="1" as="geometry">
            <mxPoint x="760" y="452.5" as="sourcePoint" />
            <mxPoint x="805" y="477.5" as="targetPoint" />
            <Array as="points">
              <mxPoint x="833" y="465" />
            </Array>
          </mxGeometry>
        </mxCell>
        <mxCell id="gLD4gWAbkQPmNSI0nhXh-40" value="" style="endArrow=classic;html=1;rounded=0;entryX=1;entryY=0.5;entryDx=0;entryDy=0;exitX=0;exitY=0.5;exitDx=0;exitDy=0;" edge="1" parent="1" source="gLD4gWAbkQPmNSI0nhXh-31" target="gLD4gWAbkQPmNSI0nhXh-29">
          <mxGeometry width="50" height="50" relative="1" as="geometry">
            <mxPoint x="663" y="415" as="sourcePoint" />
            <mxPoint x="708" y="440" as="targetPoint" />
            <Array as="points">
              <mxPoint x="610" y="465" />
              <mxPoint x="610" y="1065" />
            </Array>
          </mxGeometry>
        </mxCell>
        <mxCell id="gLD4gWAbkQPmNSI0nhXh-41" value="" style="endArrow=block;dashed=1;endFill=0;endSize=12;html=1;rounded=0;exitX=0.5;exitY=1;exitDx=0;exitDy=0;entryX=0.25;entryY=0;entryDx=0;entryDy=0;" edge="1" parent="1" source="gLD4gWAbkQPmNSI0nhXh-22" target="gLD4gWAbkQPmNSI0nhXh-37">
          <mxGeometry width="160" relative="1" as="geometry">
            <mxPoint x="200" y="865" as="sourcePoint" />
            <mxPoint x="670" y="880" as="targetPoint" />
            <Array as="points">
              <mxPoint x="193" y="880" />
              <mxPoint x="450" y="880" />
              <mxPoint x="650" y="880" />
              <mxPoint x="650" y="910" />
            </Array>
          </mxGeometry>
        </mxCell>
      </root>
    </mxGraphModel>
  </diagram>
</mxfile>
